<?xml version="1.0" encoding="UTF-8"?>
<svg id="Layer_1" xmlns="http://www.w3.org/2000/svg" viewBox="0 0 408.51 488.77">
  <defs>
    <style>
      .cls-1 {
        fill: #fff;
      }
    </style>
  </defs>
  <path class="cls-1" d="M9.13,283.64c8.36-33.38,48.33-51.73,109.75-39.3,79.86,16.16,120.14,76.94,112.7,113.72-6.87,33.97-46.93,50.65-102.54,39.4C43.04,380.07-3.07,332.35,9.13,283.64M227.93,352.36c5.25-25.94-37.84-52.03-116.08-67.86-54.64-11.05-95.6-8.14-99.13,9.31-5.25,25.95,48.79,53.18,124.12,68.42,48.5,9.81,87.55,7.59,91.08-9.87"/>
  <path class="cls-1" d="M238.34,402.41v-.63c13.22-18.46,17.2-43.21,17.2-69.44s-3.99-50.97-17.2-69.43v-.63l26.64-.21v40.91c20.52-41.53,84.32-32.95,82.56-27.01-6.04,20.37-14.08,45.47-14.08,45.47,0,0-58.31-59.33-68.48,3.35v7.55c0,26.22,3.99,50.98,17.2,69.44v.63h-43.84Z"/>
  <path class="cls-1" d="M372.03,54.06c-28.11,0-64.59,46.89-75.5,75.84,4.4-23.7,8.81-46.36,25.8-63.98v-.63h-37.97v119.91c2.64,1.76,5.76,3.26,9.44,4.29v-3.36c0-59.37,35.45-90.2,62.09-90.2,19.32,0,56.5,22.41-2.61,86.64,26.05-5.48,40.88,10.88,45.65,20.42-9.54-101.22,3.49-148.92-26.91-148.92"/>
  <path class="cls-1" d="M255.34,142.94c25.93-99.35-40.59-70.08-40.18-68.3,11.03,47.81,51.56,54.66-2.51,130.17v.62h80.67v-.62c-29.86-6.07-44.61-36.47-37.99-61.87"/>
  <path class="cls-1" d="M234.43,4.63c-27.53,19.66-15.7,63.78-10.57,62,9.31-30.75,54.87-16.49,54.87-42.93,0-19.9-27.43-30.33-44.3-19.07"/>
  <path class="cls-1" d="M391.43,207.21c23.74,24.1,4.52,65.53-.23,62.89-3.9-31.89-51.22-25.66-46.68-51.71,3.42-19.6,32.23-25.17,46.91-11.18"/>
  <path class="cls-1" d="M360.81,342.26c-24.96-95.64,39.07-67.46,38.68-65.75-10.62,46.03-49.63,52.62,2.42,125.3v.6h-77.66v-.6c28.74-5.85,42.95-35.11,36.57-59.55"/>
  <path class="cls-1" d="M13.21,480.64c0-.26-.08-.48-.24-.66-.16-.18-.46-.37-.92-.57-.46-.2-1.15-.44-2.09-.72l-1.95-.63c-1.9-.6-3.45-1.54-4.65-2.83-1.2-1.29-1.8-2.92-1.8-4.9,0-1.72.43-3.25,1.29-4.59.86-1.34,2.06-2.39,3.61-3.15,1.55-.76,3.35-1.13,5.41-1.13,1.88,0,3.73.3,5.55.9,1.82.6,3.33,1.39,4.53,2.38l-3.99,5.86c-1.9-1.41-3.77-2.11-5.59-2.11-1.38,0-2.07.35-2.07,1.05,0,.34.19.62.57.84.38.22,1.19.55,2.44,1l1.84.62c2.32.78,4.07,1.84,5.26,3.17,1.18,1.33,1.78,3,1.78,5,0,1.74-.47,3.26-1.41,4.55-.94,1.29-2.26,2.29-3.97,2.99-1.71.7-3.71,1.05-6,1.05-2.06,0-4.01-.29-5.86-.88-1.85-.59-3.5-1.41-4.96-2.48l3.63-6.25c2.53,1.72,4.95,2.58,7.27,2.58,1.54,0,2.31-.36,2.31-1.09"/>
  <path class="cls-1" d="M45.33,462.08h12.31c3.02,0,5.4.8,7.13,2.4,1.73,1.6,2.6,3.8,2.6,6.59,0,1.88-.4,3.51-1.19,4.9-.8,1.39-1.92,2.48-3.38,3.24-1.46.77-3.18,1.15-5.16,1.15h-3.56v7.78h-8.75v-26.06ZM58.77,471.22c0-1.61-.91-2.42-2.74-2.42h-1.95v4.85h1.95c1.82,0,2.74-.81,2.74-2.42"/>
  <polygon class="cls-1" points="90.42 462.08 109.96 462.08 109.96 469.5 99.02 469.5 99.02 471.77 107.27 471.77 107.27 478.33 99.02 478.33 99.02 480.72 110.9 480.72 110.9 488.14 90.42 488.14 90.42 462.08"/>
  <path class="cls-1" d="M131.85,475.05c0-2.68.59-5.05,1.78-7.09,1.18-2.04,2.82-3.64,4.9-4.79,2.08-1.15,4.49-1.72,7.23-1.72,2.37,0,4.51.44,6.43,1.33,1.91.89,3.46,2.14,4.63,3.75l-5.59,5.51c-.76-1.02-1.49-1.73-2.21-2.15-.72-.42-1.56-.63-2.52-.63-1.67,0-3,.52-4.01,1.56-1,1.04-1.51,2.42-1.51,4.14s.54,3.24,1.62,4.34c1.08,1.09,2.49,1.64,4.24,1.64,1.02,0,1.92-.22,2.7-.66.78-.44,1.54-1.17,2.27-2.19l5.39,5.24c-2.58,3.62-6.32,5.43-11.21,5.43-2.79,0-5.24-.58-7.37-1.74-2.12-1.16-3.78-2.77-4.98-4.83-1.2-2.06-1.8-4.44-1.8-7.15"/>
  <rect class="cls-1" x="179.68" y="462.08" width="8.75" height="26.06"/>
  <path class="cls-1" d="M228.72,483.84h-7.62l-1.13,4.3h-9.03l8.99-26.06h10.32l8.99,26.06h-9.38l-1.13-4.3ZM224.93,469.62l-2.19,8.13h4.34l-2.15-8.13Z"/>
  <polygon class="cls-1" points="261.74 462.08 270.49 462.08 270.49 480.48 281.32 480.48 281.32 488.14 261.74 488.14 261.74 462.08"/>
  <rect class="cls-1" x="303.98" y="462.08" width="8.75" height="26.06"/>
  <polygon class="cls-1" points="342.86 469.74 335.59 469.74 335.59 462.08 358.88 462.08 358.88 469.74 351.62 469.74 351.62 488.14 342.86 488.14 342.86 469.74"/>
  <polygon class="cls-1" points="390.34 478.45 380.92 462.08 390.65 462.08 394.99 471.81 399.33 462.08 408.51 462.08 399.09 478.45 399.09 488.14 390.34 488.14 390.34 478.45"/>
  <path class="cls-1" d="M7.32,205.43V65.31h37.97v.63c-16.99,17.62-21.4,40.28-25.8,63.98,10.91-28.95,38.18-66.71,66.29-66.71,25.59,0,26.43,30.42,26.01,61.46v3.57c11.33-28.74,37.97-65.03,65.66-65.03,25.59,0,26.43,30.42,26.01,61.46l-.21,80.76h-43v-.63c22.86-21.61,33.56-45.73,33.56-74.26,0-23.71-11.75-34.4-26.64-34.4-20.77,0-47.41,21.19-55.38,57.9l-.21,51.4h-43v-.63c22.87-21.61,33.56-45.73,33.56-74.26,0-23.29-12.17-34.61-27.27-34.61-24.96,0-58.11,30.84-58.11,90.2v19.3H7.32Z"/>
</svg>